<svg width="36" height="30" viewBox="0 0 36 30" fill="currentcolor" xmlns="http://www.w3.org/2000/svg">
<path d="M5.72239 7.79643C5.35385 7.49416 4.8809 7.34955 4.40633 7.39404C3.93176 7.43853 3.49393 7.66852 3.18799 8.03403L0.889389 10.8042C0.587009 11.1723 0.442146 11.6448 0.486303 12.119C0.53046 12.5933 0.760065 13.031 1.12519 13.3368L15.3236 25.1124L8.47099 10.0752L5.72239 7.79643ZM12.6236 1.82943L9.34759 3.32163C8.91521 3.52154 8.57913 3.88393 8.41232 4.33012C8.2455 4.77631 8.26141 5.2703 8.45659 5.70483L16.1066 22.4898L16.49 5.96763L15.0104 2.72043C14.5964 1.82043 13.5236 1.41903 12.6236 1.82943ZM25.58 2.19663C25.5897 1.71992 25.4104 1.25873 25.0812 0.913736C24.7521 0.568746 24.2998 0.367969 23.8232 0.355231L20.2232 0.272431C19.7468 0.263235 19.2861 0.44275 18.9415 0.771839C18.5969 1.10093 18.3963 1.5529 18.3836 2.02923L17.9534 20.4666L25.4954 5.76603L25.58 2.19663ZM34.544 3.90663L31.3418 2.26323C30.9163 2.04741 30.4228 2.0084 29.9687 2.15472C29.5146 2.30103 29.1367 2.62081 28.9172 3.04443L17.4134 25.4652C17.1971 25.8906 17.1578 26.3843 17.3042 26.8386C17.4505 27.2928 17.7706 27.6707 18.1946 27.8898L21.3968 29.5332C21.8217 29.7496 22.315 29.7891 22.7689 29.6431C23.2228 29.497 23.6005 29.1774 23.8196 28.7538L35.3234 6.33303C35.5399 5.90758 35.5795 5.41379 35.4335 4.95929C35.2875 4.50478 34.9678 4.1264 34.544 3.90663ZM23.0384 26.3274C22.9337 26.5428 22.787 26.7351 22.6071 26.8931C22.4271 27.0511 22.2174 27.1716 21.9903 27.2475C21.7631 27.3234 21.5231 27.3533 21.2843 27.3353C21.0455 27.3173 20.8127 27.2518 20.5995 27.1427C20.3863 27.0336 20.1971 26.883 20.0428 26.6999C19.8885 26.5167 19.7724 26.3046 19.7011 26.0759C19.6299 25.8473 19.6049 25.6067 19.6278 25.3683C19.6507 25.13 19.7209 24.8985 19.8344 24.6876C20.0575 24.2728 20.4344 23.962 20.884 23.8219C21.3337 23.6817 21.8204 23.7234 22.2397 23.938C22.6589 24.1526 22.9774 24.523 23.1267 24.9697C23.2761 25.4164 23.2443 25.9038 23.0384 26.3274Z" fill="currentcolor"/>
</svg>
